<svg xmlns="http://www.w3.org/2000/svg" viewBox="0 0 20 20">
  <defs>
    <style>
      .cls-1 {
        fill: #25b99a;
      }
    </style>
  </defs>
  <g id="list" transform="translate(-96 -96)">
    <path id="Path_1" data-name="Path 1" class="cls-1" d="M583.692,193.538h-6.923a.769.769,0,0,1,0-1.538h6.923a.769.769,0,1,1,0,1.538Z" transform="translate(-468.462 -93.692)"/>
    <path id="Path_2" data-name="Path 2" class="cls-1" d="M583.692,353.538h-6.923a.769.769,0,0,1,0-1.538h6.923a.769.769,0,1,1,0,1.538Z" transform="translate(-468.462 -249.846)"/>
    <path id="Path_3" data-name="Path 3" class="cls-1" d="M583.692,609.538h-6.923a.769.769,0,0,1,0-1.539h6.923a.769.769,0,1,1,0,1.539Z" transform="translate(-468.462 -499.692)"/>
    <path id="Path_4" data-name="Path 4" class="cls-1" d="M583.692,769.538h-6.923a.769.769,0,0,1,0-1.538h6.923a.769.769,0,1,1,0,1.538Z" transform="translate(-468.462 -655.846)"/>
    <path id="Path_5" data-name="Path 5" class="cls-1" d="M102.923,105.231H98.308A2.31,2.31,0,0,1,96,102.923V98.308A2.31,2.31,0,0,1,98.308,96h4.615a2.31,2.31,0,0,1,2.308,2.308v4.615A2.31,2.31,0,0,1,102.923,105.231Zm-4.615-7.692a.77.77,0,0,0-.769.769v4.615a.77.77,0,0,0,.769.769h4.615a.77.77,0,0,0,.769-.769V98.308a.77.77,0,0,0-.769-.769Z" transform="translate(0 0)"/>
    <path id="Path_6" data-name="Path 6" class="cls-1" d="M102.923,553.23H98.308A2.311,2.311,0,0,1,96,550.923v-4.615A2.31,2.31,0,0,1,98.308,544h4.615a2.31,2.31,0,0,1,2.308,2.308v4.615A2.311,2.311,0,0,1,102.923,553.23Zm-4.615-7.693a.771.771,0,0,0-.769.77v4.615a.77.77,0,0,0,.769.769h4.615a.77.77,0,0,0,.769-.769v-4.615a.771.771,0,0,0-.769-.77Z" transform="translate(0 -437.23)"/>
  </g>
</svg>
